<?xml version="1.0" encoding="UTF-8" standalone="no"?>
<!DOCTYPE svg PUBLIC "-//W3C//DTD SVG 1.1//EN"
 "http://www.w3.org/Graphics/SVG/1.1/DTD/svg11.dtd">
<!-- Generated by graphviz version 2.43.0 (0)
 -->
<!-- Title: topology Pages: 1 -->
<svg width="837pt" height="406pt"
 viewBox="0.00 0.00 836.50 406.00" xmlns="http://www.w3.org/2000/svg" xmlns:xlink="http://www.w3.org/1999/xlink">
<g id="graph0" class="graph" transform="scale(1 1) rotate(0) translate(4 402)">
<title>topology</title>
<polygon fill="white" stroke="transparent" points="-4,4 -4,-402 832.5,-402 832.5,4 -4,4"/>
<!-- P0 -->
<g id="node1" class="node">
<title>P0</title>
<polygon fill="none" stroke="black" points="124,-341 68,-341 68,-303 124,-303 124,-341"/>
<text text-anchor="middle" x="96" y="-325.8" font-family="Helvetica,sans-Serif" font-size="14.00">P0</text>
<text text-anchor="middle" x="96" y="-310.8" font-family="Helvetica,sans-Serif" font-size="14.00">Tier 0</text>
</g>
<!-- H0 -->
<g id="node5" class="node">
<title>H0</title>
<polygon fill="lightgray" stroke="black" points="133,-199 0,-161 133,-123 266,-161 133,-199"/>
<text text-anchor="middle" x="133" y="-164.8" font-family="Helvetica,sans-Serif" font-size="14.00">TIER0_SWITCH&#45;0</text>
<text text-anchor="middle" x="133" y="-149.8" font-family="Helvetica,sans-Serif" font-size="14.00">Tier 1</text>
</g>
<!-- P0&#45;&gt;H0 -->
<g id="edge1" class="edge">
<title>P0&#45;&gt;H0</title>
<path fill="none" stroke="black" d="M95.79,-302.97C95.98,-281.95 97.69,-246.32 106,-217 107.29,-212.44 108.95,-207.81 110.81,-203.26"/>
<polygon fill="black" stroke="black" points="114.02,-204.65 114.86,-194.09 107.62,-201.83 114.02,-204.65"/>
<text text-anchor="middle" x="127" y="-220" font-family="Helvetica,sans-Serif" font-size="10.00">62916ns</text>
</g>
<!-- P1 -->
<g id="node2" class="node">
<title>P1</title>
<polygon fill="none" stroke="black" points="198,-341 142,-341 142,-303 198,-303 198,-341"/>
<text text-anchor="middle" x="170" y="-325.8" font-family="Helvetica,sans-Serif" font-size="14.00">P1</text>
<text text-anchor="middle" x="170" y="-310.8" font-family="Helvetica,sans-Serif" font-size="14.00">Tier 0</text>
</g>
<!-- P1&#45;&gt;H0 -->
<g id="edge2" class="edge">
<title>P1&#45;&gt;H0</title>
<path fill="none" stroke="black" d="M166.5,-302.89C162.4,-282.09 155.25,-246.96 148,-217 147.13,-213.42 146.2,-209.72 145.25,-206.01"/>
<polygon fill="black" stroke="black" points="148.6,-205.02 142.67,-196.25 141.84,-206.81 148.6,-205.02"/>
<text text-anchor="middle" x="170" y="-220" font-family="Helvetica,sans-Serif" font-size="10.00">62916ns</text>
</g>
<!-- P2 -->
<g id="node3" class="node">
<title>P2</title>
<polygon fill="none" stroke="black" points="408,-341 352,-341 352,-303 408,-303 408,-341"/>
<text text-anchor="middle" x="380" y="-325.8" font-family="Helvetica,sans-Serif" font-size="14.00">P2</text>
<text text-anchor="middle" x="380" y="-310.8" font-family="Helvetica,sans-Serif" font-size="14.00">Tier 0</text>
</g>
<!-- H1 -->
<g id="node6" class="node">
<title>H1</title>
<polygon fill="lightgray" stroke="black" points="417,-199 284,-161 417,-123 550,-161 417,-199"/>
<text text-anchor="middle" x="417" y="-164.8" font-family="Helvetica,sans-Serif" font-size="14.00">TIER0_SWITCH&#45;1</text>
<text text-anchor="middle" x="417" y="-149.8" font-family="Helvetica,sans-Serif" font-size="14.00">Tier 1</text>
</g>
<!-- P2&#45;&gt;H1 -->
<g id="edge3" class="edge">
<title>P2&#45;&gt;H1</title>
<path fill="none" stroke="black" d="M379.79,-302.97C379.98,-281.95 381.69,-246.32 390,-217 391.29,-212.44 392.95,-207.81 394.81,-203.26"/>
<polygon fill="black" stroke="black" points="398.02,-204.65 398.86,-194.09 391.62,-201.83 398.02,-204.65"/>
<text text-anchor="middle" x="411" y="-220" font-family="Helvetica,sans-Serif" font-size="10.00">60703ns</text>
</g>
<!-- P3 -->
<g id="node4" class="node">
<title>P3</title>
<polygon fill="none" stroke="black" points="482,-341 426,-341 426,-303 482,-303 482,-341"/>
<text text-anchor="middle" x="454" y="-325.8" font-family="Helvetica,sans-Serif" font-size="14.00">P3</text>
<text text-anchor="middle" x="454" y="-310.8" font-family="Helvetica,sans-Serif" font-size="14.00">Tier 0</text>
</g>
<!-- P3&#45;&gt;H1 -->
<g id="edge4" class="edge">
<title>P3&#45;&gt;H1</title>
<path fill="none" stroke="black" d="M450.5,-302.89C446.4,-282.09 439.25,-246.96 432,-217 431.13,-213.42 430.2,-209.72 429.25,-206.01"/>
<polygon fill="black" stroke="black" points="432.6,-205.02 426.67,-196.25 425.84,-206.81 432.6,-205.02"/>
<text text-anchor="middle" x="454" y="-220" font-family="Helvetica,sans-Serif" font-size="10.00">60703ns</text>
</g>
<!-- H2 -->
<g id="node7" class="node">
<title>H2</title>
<polygon fill="lightgray" stroke="black" points="274,-76 152,-38 274,0 396,-38 274,-76"/>
<text text-anchor="middle" x="274" y="-41.8" font-family="Helvetica,sans-Serif" font-size="14.00">TOR_SWITCH&#45;0</text>
<text text-anchor="middle" x="274" y="-26.8" font-family="Helvetica,sans-Serif" font-size="14.00">Tier 2</text>
</g>
<!-- H0&#45;&gt;H2 -->
<g id="edge5" class="edge">
<title>H0&#45;&gt;H2</title>
<path fill="none" stroke="black" d="M165.35,-132.24C185.91,-114.59 212.68,-91.63 234.49,-72.9"/>
<polygon fill="black" stroke="black" points="236.98,-75.38 242.29,-66.21 232.42,-70.07 236.98,-75.38"/>
<text text-anchor="middle" x="231" y="-97" font-family="Helvetica,sans-Serif" font-size="10.00">470806ns</text>
</g>
<!-- H1&#45;&gt;H2 -->
<g id="edge6" class="edge">
<title>H1&#45;&gt;H2</title>
<path fill="none" stroke="black" d="M384.19,-132.24C363.34,-114.59 336.19,-91.63 314.07,-72.9"/>
<polygon fill="black" stroke="black" points="316.06,-70 306.16,-66.21 311.53,-75.34 316.06,-70"/>
<text text-anchor="middle" x="373" y="-97" font-family="Helvetica,sans-Serif" font-size="10.00">473019ns</text>
</g>
<!-- latency_matrix -->
<g id="node8" class="node">
<title>latency_matrix</title>
<polygon fill="lightblue" stroke="transparent" points="501,-372 501,-397 828,-397 828,-372 501,-372"/>
<polygon fill="none" stroke="black" points="501,-372 501,-397 828,-397 828,-372 501,-372"/>
<text text-anchor="start" x="587.5" y="-381.8" font-family="Helvetica,sans-Serif" font-weight="bold" font-size="14.00">Latency Matrix (ns)</text>
<polygon fill="lightgray" stroke="transparent" points="501,-347 501,-372 532,-372 532,-347 501,-347"/>
<polygon fill="none" stroke="black" points="501,-347 501,-372 532,-372 532,-347 501,-347"/>
<polygon fill="lightgray" stroke="transparent" points="532,-347 532,-372 606,-372 606,-347 532,-347"/>
<polygon fill="none" stroke="black" points="532,-347 532,-372 606,-372 606,-347 532,-347"/>
<text text-anchor="start" x="558.5" y="-356.8" font-family="Helvetica,sans-Serif" font-weight="bold" font-size="14.00">P0</text>
<polygon fill="lightgray" stroke="transparent" points="606,-347 606,-372 680,-372 680,-347 606,-347"/>
<polygon fill="none" stroke="black" points="606,-347 606,-372 680,-372 680,-347 606,-347"/>
<text text-anchor="start" x="632.5" y="-356.8" font-family="Helvetica,sans-Serif" font-weight="bold" font-size="14.00">P1</text>
<polygon fill="lightgray" stroke="transparent" points="680,-347 680,-372 754,-372 754,-347 680,-347"/>
<polygon fill="none" stroke="black" points="680,-347 680,-372 754,-372 754,-347 680,-347"/>
<text text-anchor="start" x="706.5" y="-356.8" font-family="Helvetica,sans-Serif" font-weight="bold" font-size="14.00">P2</text>
<polygon fill="lightgray" stroke="transparent" points="754,-347 754,-372 828,-372 828,-347 754,-347"/>
<polygon fill="none" stroke="black" points="754,-347 754,-372 828,-372 828,-347 754,-347"/>
<text text-anchor="start" x="780.5" y="-356.8" font-family="Helvetica,sans-Serif" font-weight="bold" font-size="14.00">P3</text>
<polygon fill="lightgray" stroke="transparent" points="501,-322 501,-347 532,-347 532,-322 501,-322"/>
<polygon fill="none" stroke="black" points="501,-322 501,-347 532,-347 532,-322 501,-322"/>
<text text-anchor="start" x="506" y="-331.8" font-family="Helvetica,sans-Serif" font-weight="bold" font-size="14.00">P0</text>
<polygon fill="#e0e0e0" stroke="transparent" points="532,-322 532,-347 606,-347 606,-322 532,-322"/>
<polygon fill="none" stroke="black" points="532,-322 532,-347 606,-347 606,-322 532,-322"/>
<text text-anchor="start" x="566" y="-330.8" font-family="Helvetica,sans-Serif" font-size="14.00">&#45;</text>
<polygon fill="none" stroke="black" points="606,-322 606,-347 680,-347 680,-322 606,-322"/>
<text text-anchor="start" x="615.5" y="-330.8" font-family="Helvetica,sans-Serif" font-size="14.00">125833</text>
<polygon fill="none" stroke="black" points="680,-322 680,-347 754,-347 754,-322 680,-322"/>
<text text-anchor="start" x="685" y="-330.8" font-family="Helvetica,sans-Serif" font-size="14.00">1066594</text>
<polygon fill="none" stroke="black" points="754,-322 754,-347 828,-347 828,-322 754,-322"/>
<text text-anchor="start" x="759" y="-330.8" font-family="Helvetica,sans-Serif" font-size="14.00">1066239</text>
<polygon fill="lightgray" stroke="transparent" points="501,-297 501,-322 532,-322 532,-297 501,-297"/>
<polygon fill="none" stroke="black" points="501,-297 501,-322 532,-322 532,-297 501,-297"/>
<text text-anchor="start" x="506" y="-306.8" font-family="Helvetica,sans-Serif" font-weight="bold" font-size="14.00">P1</text>
<polygon fill="none" stroke="black" points="532,-297 532,-322 606,-322 606,-297 532,-297"/>
<text text-anchor="start" x="541.5" y="-305.8" font-family="Helvetica,sans-Serif" font-size="14.00">125833</text>
<polygon fill="#e0e0e0" stroke="transparent" points="606,-297 606,-322 680,-322 680,-297 606,-297"/>
<polygon fill="none" stroke="black" points="606,-297 606,-322 680,-322 680,-297 606,-297"/>
<text text-anchor="start" x="640" y="-305.8" font-family="Helvetica,sans-Serif" font-size="14.00">&#45;</text>
<polygon fill="none" stroke="black" points="680,-297 680,-322 754,-322 754,-297 680,-297"/>
<text text-anchor="start" x="685" y="-305.8" font-family="Helvetica,sans-Serif" font-size="14.00">1068109</text>
<polygon fill="none" stroke="black" points="754,-297 754,-322 828,-322 828,-297 754,-297"/>
<text text-anchor="start" x="759" y="-305.8" font-family="Helvetica,sans-Serif" font-size="14.00">1068841</text>
<polygon fill="lightgray" stroke="transparent" points="501,-272 501,-297 532,-297 532,-272 501,-272"/>
<polygon fill="none" stroke="black" points="501,-272 501,-297 532,-297 532,-272 501,-272"/>
<text text-anchor="start" x="506" y="-281.8" font-family="Helvetica,sans-Serif" font-weight="bold" font-size="14.00">P2</text>
<polygon fill="none" stroke="black" points="532,-272 532,-297 606,-297 606,-272 532,-272"/>
<text text-anchor="start" x="537" y="-280.8" font-family="Helvetica,sans-Serif" font-size="14.00">1066594</text>
<polygon fill="none" stroke="black" points="606,-272 606,-297 680,-297 680,-272 606,-272"/>
<text text-anchor="start" x="611" y="-280.8" font-family="Helvetica,sans-Serif" font-size="14.00">1068109</text>
<polygon fill="#e0e0e0" stroke="transparent" points="680,-272 680,-297 754,-297 754,-272 680,-272"/>
<polygon fill="none" stroke="black" points="680,-272 680,-297 754,-297 754,-272 680,-272"/>
<text text-anchor="start" x="714" y="-280.8" font-family="Helvetica,sans-Serif" font-size="14.00">&#45;</text>
<polygon fill="none" stroke="black" points="754,-272 754,-297 828,-297 828,-272 754,-272"/>
<text text-anchor="start" x="763.5" y="-280.8" font-family="Helvetica,sans-Serif" font-size="14.00">121407</text>
<polygon fill="lightgray" stroke="transparent" points="501,-247 501,-272 532,-272 532,-247 501,-247"/>
<polygon fill="none" stroke="black" points="501,-247 501,-272 532,-272 532,-247 501,-247"/>
<text text-anchor="start" x="506" y="-256.8" font-family="Helvetica,sans-Serif" font-weight="bold" font-size="14.00">P3</text>
<polygon fill="none" stroke="black" points="532,-247 532,-272 606,-272 606,-247 532,-247"/>
<text text-anchor="start" x="537" y="-255.8" font-family="Helvetica,sans-Serif" font-size="14.00">1066239</text>
<polygon fill="none" stroke="black" points="606,-247 606,-272 680,-272 680,-247 606,-247"/>
<text text-anchor="start" x="611" y="-255.8" font-family="Helvetica,sans-Serif" font-size="14.00">1068841</text>
<polygon fill="none" stroke="black" points="680,-247 680,-272 754,-272 754,-247 680,-247"/>
<text text-anchor="start" x="689.5" y="-255.8" font-family="Helvetica,sans-Serif" font-size="14.00">121407</text>
<polygon fill="#e0e0e0" stroke="transparent" points="754,-247 754,-272 828,-272 828,-247 754,-247"/>
<polygon fill="none" stroke="black" points="754,-247 754,-272 828,-272 828,-247 754,-247"/>
<text text-anchor="start" x="788" y="-255.8" font-family="Helvetica,sans-Serif" font-size="14.00">&#45;</text>
<polygon fill="none" stroke="black" points="499.5,-246 499.5,-398 828.5,-398 828.5,-246 499.5,-246"/>
</g>
</g>
</svg>
