<?xml version="1.0" encoding="UTF-8" standalone="no"?>
<!DOCTYPE svg PUBLIC "-//W3C//DTD SVG 1.1//EN"
 "http://www.w3.org/Graphics/SVG/1.1/DTD/svg11.dtd">
<!-- Generated by graphviz version 2.43.0 (0)
 -->
<!-- Title: topology Pages: 1 -->
<svg width="1329pt" height="506pt"
 viewBox="0.00 0.00 1328.50 506.00" xmlns="http://www.w3.org/2000/svg" xmlns:xlink="http://www.w3.org/1999/xlink">
<g id="graph0" class="graph" transform="scale(1 1) rotate(0) translate(4 502)">
<title>topology</title>
<polygon fill="white" stroke="transparent" points="-4,4 -4,-502 1324.5,-502 1324.5,4 -4,4"/>
<!-- P0 -->
<g id="node1" class="node">
<title>P0</title>
<polygon fill="none" stroke="black" points="383,-391 327,-391 327,-353 383,-353 383,-391"/>
<text text-anchor="middle" x="355" y="-375.8" font-family="Helvetica,sans-Serif" font-size="14.00">P0</text>
<text text-anchor="middle" x="355" y="-360.8" font-family="Helvetica,sans-Serif" font-size="14.00">Tier 0</text>
</g>
<!-- H0 -->
<g id="node9" class="node">
<title>H0</title>
<polygon fill="lightgray" stroke="black" points="444,-199 311,-161 444,-123 577,-161 444,-199"/>
<text text-anchor="middle" x="444" y="-164.8" font-family="Helvetica,sans-Serif" font-size="14.00">TIER0_SWITCH&#45;0</text>
<text text-anchor="middle" x="444" y="-149.8" font-family="Helvetica,sans-Serif" font-size="14.00">Tier 1</text>
</g>
<!-- P0&#45;&gt;H0 -->
<g id="edge1" class="edge">
<title>P0&#45;&gt;H0</title>
<path fill="none" stroke="black" d="M354.06,-352.61C353.33,-322.33 355.37,-260.95 380,-217 384.52,-208.93 390.71,-201.49 397.47,-194.87"/>
<polygon fill="black" stroke="black" points="399.95,-197.34 404.97,-188.01 395.22,-192.18 399.95,-197.34"/>
<text text-anchor="middle" x="404" y="-220" font-family="Helvetica,sans-Serif" font-size="10.00">111504ns</text>
</g>
<!-- P1 -->
<g id="node2" class="node">
<title>P1</title>
<polygon fill="none" stroke="black" points="457,-391 401,-391 401,-353 457,-353 457,-391"/>
<text text-anchor="middle" x="429" y="-375.8" font-family="Helvetica,sans-Serif" font-size="14.00">P1</text>
<text text-anchor="middle" x="429" y="-360.8" font-family="Helvetica,sans-Serif" font-size="14.00">Tier 0</text>
</g>
<!-- P1&#45;&gt;H0 -->
<g id="edge2" class="edge">
<title>P1&#45;&gt;H0</title>
<path fill="none" stroke="black" d="M428.47,-352.91C427.85,-324.07 427.52,-265.9 433,-217 433.37,-213.71 433.83,-210.32 434.36,-206.92"/>
<polygon fill="black" stroke="black" points="437.86,-207.22 436.11,-196.77 430.96,-206.03 437.86,-207.22"/>
<text text-anchor="middle" x="457" y="-220" font-family="Helvetica,sans-Serif" font-size="10.00">111581ns</text>
</g>
<!-- P2 -->
<g id="node3" class="node">
<title>P2</title>
<polygon fill="none" stroke="black" points="531,-391 475,-391 475,-353 531,-353 531,-391"/>
<text text-anchor="middle" x="503" y="-375.8" font-family="Helvetica,sans-Serif" font-size="14.00">P2</text>
<text text-anchor="middle" x="503" y="-360.8" font-family="Helvetica,sans-Serif" font-size="14.00">Tier 0</text>
</g>
<!-- P2&#45;&gt;H0 -->
<g id="edge3" class="edge">
<title>P2&#45;&gt;H0</title>
<path fill="none" stroke="black" d="M503,-352.8C502.43,-323.29 498.93,-263.64 481,-217 478.91,-211.56 476.2,-206.13 473.2,-200.9"/>
<polygon fill="black" stroke="black" points="476.15,-199.03 467.93,-192.35 470.19,-202.7 476.15,-199.03"/>
<text text-anchor="middle" x="507" y="-220" font-family="Helvetica,sans-Serif" font-size="10.00">112075ns</text>
</g>
<!-- P3 -->
<g id="node4" class="node">
<title>P3</title>
<polygon fill="none" stroke="black" points="605,-391 549,-391 549,-353 605,-353 605,-391"/>
<text text-anchor="middle" x="577" y="-375.8" font-family="Helvetica,sans-Serif" font-size="14.00">P3</text>
<text text-anchor="middle" x="577" y="-360.8" font-family="Helvetica,sans-Serif" font-size="14.00">Tier 0</text>
</g>
<!-- P3&#45;&gt;H0 -->
<g id="edge4" class="edge">
<title>P3&#45;&gt;H0</title>
<path fill="none" stroke="black" d="M576.33,-352.98C574.33,-322.14 566.39,-258.58 535,-217 526.93,-206.32 516.14,-197.27 504.8,-189.8"/>
<polygon fill="black" stroke="black" points="506.41,-186.68 496.06,-184.38 502.72,-192.63 506.41,-186.68"/>
<text text-anchor="middle" x="566" y="-220" font-family="Helvetica,sans-Serif" font-size="10.00">111266ns</text>
</g>
<!-- P4 -->
<g id="node5" class="node">
<title>P4</title>
<polygon fill="none" stroke="black" points="130,-391 74,-391 74,-353 130,-353 130,-391"/>
<text text-anchor="middle" x="102" y="-375.8" font-family="Helvetica,sans-Serif" font-size="14.00">P4</text>
<text text-anchor="middle" x="102" y="-360.8" font-family="Helvetica,sans-Serif" font-size="14.00">Tier 0</text>
</g>
<!-- H1 -->
<g id="node10" class="node">
<title>H1</title>
<polygon fill="lightgray" stroke="black" points="160,-199 27,-161 160,-123 293,-161 160,-199"/>
<text text-anchor="middle" x="160" y="-164.8" font-family="Helvetica,sans-Serif" font-size="14.00">TIER0_SWITCH&#45;1</text>
<text text-anchor="middle" x="160" y="-149.8" font-family="Helvetica,sans-Serif" font-size="14.00">Tier 1</text>
</g>
<!-- P4&#45;&gt;H1 -->
<g id="edge5" class="edge">
<title>P4&#45;&gt;H1</title>
<path fill="none" stroke="black" d="M99.73,-352.62C96.82,-322.87 94.18,-262.88 113,-217 115.63,-210.6 119.3,-204.4 123.45,-198.62"/>
<polygon fill="black" stroke="black" points="126.41,-200.52 129.79,-190.48 120.89,-196.22 126.41,-200.52"/>
<text text-anchor="middle" x="137" y="-220" font-family="Helvetica,sans-Serif" font-size="10.00">113283ns</text>
</g>
<!-- P5 -->
<g id="node6" class="node">
<title>P5</title>
<polygon fill="none" stroke="black" points="204,-391 148,-391 148,-353 204,-353 204,-391"/>
<text text-anchor="middle" x="176" y="-375.8" font-family="Helvetica,sans-Serif" font-size="14.00">P5</text>
<text text-anchor="middle" x="176" y="-360.8" font-family="Helvetica,sans-Serif" font-size="14.00">Tier 0</text>
</g>
<!-- P5&#45;&gt;H1 -->
<g id="edge6" class="edge">
<title>P5&#45;&gt;H1</title>
<path fill="none" stroke="black" d="M174.61,-352.82C172.17,-320.94 167.05,-254.03 163.56,-208.54"/>
<polygon fill="black" stroke="black" points="167.03,-208.04 162.78,-198.33 160.06,-208.57 167.03,-208.04"/>
<text text-anchor="middle" x="189" y="-220" font-family="Helvetica,sans-Serif" font-size="10.00">112384ns</text>
</g>
<!-- P6 -->
<g id="node7" class="node">
<title>P6</title>
<polygon fill="none" stroke="black" points="278,-391 222,-391 222,-353 278,-353 278,-391"/>
<text text-anchor="middle" x="250" y="-375.8" font-family="Helvetica,sans-Serif" font-size="14.00">P6</text>
<text text-anchor="middle" x="250" y="-360.8" font-family="Helvetica,sans-Serif" font-size="14.00">Tier 0</text>
</g>
<!-- P6&#45;&gt;H1 -->
<g id="edge7" class="edge">
<title>P6&#45;&gt;H1</title>
<path fill="none" stroke="black" d="M249.49,-352.73C247.93,-322.61 241.7,-261.46 217,-217 212.92,-209.66 207.54,-202.69 201.71,-196.33"/>
<polygon fill="black" stroke="black" points="204.21,-193.87 194.72,-189.16 199.2,-198.76 204.21,-193.87"/>
<text text-anchor="middle" x="245" y="-220" font-family="Helvetica,sans-Serif" font-size="10.00">112468ns</text>
</g>
<!-- P7 -->
<g id="node8" class="node">
<title>P7</title>
<polygon fill="none" stroke="black" points="56,-391 0,-391 0,-353 56,-353 56,-391"/>
<text text-anchor="middle" x="28" y="-375.8" font-family="Helvetica,sans-Serif" font-size="14.00">P7</text>
<text text-anchor="middle" x="28" y="-360.8" font-family="Helvetica,sans-Serif" font-size="14.00">Tier 0</text>
</g>
<!-- P7&#45;&gt;H1 -->
<g id="edge8" class="edge">
<title>P7&#45;&gt;H1</title>
<path fill="none" stroke="black" d="M26.96,-352.91C26.12,-321.98 28.57,-258.27 59,-217 67.86,-204.99 80.15,-195.3 93.13,-187.61"/>
<polygon fill="black" stroke="black" points="95.13,-190.5 102.18,-182.59 91.74,-184.38 95.13,-190.5"/>
<text text-anchor="middle" x="83" y="-220" font-family="Helvetica,sans-Serif" font-size="10.00">113026ns</text>
</g>
<!-- H2 -->
<g id="node11" class="node">
<title>H2</title>
<polygon fill="lightgray" stroke="black" points="301,-76 179,-38 301,0 423,-38 301,-76"/>
<text text-anchor="middle" x="301" y="-41.8" font-family="Helvetica,sans-Serif" font-size="14.00">TOR_SWITCH&#45;0</text>
<text text-anchor="middle" x="301" y="-26.8" font-family="Helvetica,sans-Serif" font-size="14.00">Tier 2</text>
</g>
<!-- H0&#45;&gt;H2 -->
<g id="edge9" class="edge">
<title>H0&#45;&gt;H2</title>
<path fill="none" stroke="black" d="M411.19,-132.24C390.34,-114.59 363.19,-91.63 341.07,-72.9"/>
<polygon fill="black" stroke="black" points="343.06,-70 333.16,-66.21 338.53,-75.34 343.06,-70"/>
<text text-anchor="middle" x="403" y="-97" font-family="Helvetica,sans-Serif" font-size="10.00">5160891ns</text>
</g>
<!-- H1&#45;&gt;H2 -->
<g id="edge10" class="edge">
<title>H1&#45;&gt;H2</title>
<path fill="none" stroke="black" d="M192.35,-132.24C212.91,-114.59 239.68,-91.63 261.49,-72.9"/>
<polygon fill="black" stroke="black" points="263.98,-75.38 269.29,-66.21 259.42,-70.07 263.98,-75.38"/>
<text text-anchor="middle" x="262" y="-97" font-family="Helvetica,sans-Serif" font-size="10.00">5159112ns</text>
</g>
<!-- latency_matrix -->
<g id="node12" class="node">
<title>latency_matrix</title>
<polygon fill="lightblue" stroke="transparent" points="625,-472 625,-497 1320,-497 1320,-472 625,-472"/>
<polygon fill="none" stroke="black" points="625,-472 625,-497 1320,-497 1320,-472 625,-472"/>
<text text-anchor="start" x="895.5" y="-481.8" font-family="Helvetica,sans-Serif" font-weight="bold" font-size="14.00">Latency Matrix (ns)</text>
<polygon fill="lightgray" stroke="transparent" points="625,-447 625,-472 656,-472 656,-447 625,-447"/>
<polygon fill="none" stroke="black" points="625,-447 625,-472 656,-472 656,-447 625,-447"/>
<polygon fill="lightgray" stroke="transparent" points="656,-447 656,-472 739,-472 739,-447 656,-447"/>
<polygon fill="none" stroke="black" points="656,-447 656,-472 739,-472 739,-447 656,-447"/>
<text text-anchor="start" x="687" y="-456.8" font-family="Helvetica,sans-Serif" font-weight="bold" font-size="14.00">P0</text>
<polygon fill="lightgray" stroke="transparent" points="739,-447 739,-472 822,-472 822,-447 739,-447"/>
<polygon fill="none" stroke="black" points="739,-447 739,-472 822,-472 822,-447 739,-447"/>
<text text-anchor="start" x="770" y="-456.8" font-family="Helvetica,sans-Serif" font-weight="bold" font-size="14.00">P1</text>
<polygon fill="lightgray" stroke="transparent" points="822,-447 822,-472 905,-472 905,-447 822,-447"/>
<polygon fill="none" stroke="black" points="822,-447 822,-472 905,-472 905,-447 822,-447"/>
<text text-anchor="start" x="853" y="-456.8" font-family="Helvetica,sans-Serif" font-weight="bold" font-size="14.00">P2</text>
<polygon fill="lightgray" stroke="transparent" points="905,-447 905,-472 988,-472 988,-447 905,-447"/>
<polygon fill="none" stroke="black" points="905,-447 905,-472 988,-472 988,-447 905,-447"/>
<text text-anchor="start" x="936" y="-456.8" font-family="Helvetica,sans-Serif" font-weight="bold" font-size="14.00">P3</text>
<polygon fill="lightgray" stroke="transparent" points="988,-447 988,-472 1071,-472 1071,-447 988,-447"/>
<polygon fill="none" stroke="black" points="988,-447 988,-472 1071,-472 1071,-447 988,-447"/>
<text text-anchor="start" x="1019" y="-456.8" font-family="Helvetica,sans-Serif" font-weight="bold" font-size="14.00">P4</text>
<polygon fill="lightgray" stroke="transparent" points="1071,-447 1071,-472 1154,-472 1154,-447 1071,-447"/>
<polygon fill="none" stroke="black" points="1071,-447 1071,-472 1154,-472 1154,-447 1071,-447"/>
<text text-anchor="start" x="1102" y="-456.8" font-family="Helvetica,sans-Serif" font-weight="bold" font-size="14.00">P5</text>
<polygon fill="lightgray" stroke="transparent" points="1154,-447 1154,-472 1237,-472 1237,-447 1154,-447"/>
<polygon fill="none" stroke="black" points="1154,-447 1154,-472 1237,-472 1237,-447 1154,-447"/>
<text text-anchor="start" x="1185" y="-456.8" font-family="Helvetica,sans-Serif" font-weight="bold" font-size="14.00">P6</text>
<polygon fill="lightgray" stroke="transparent" points="1237,-447 1237,-472 1320,-472 1320,-447 1237,-447"/>
<polygon fill="none" stroke="black" points="1237,-447 1237,-472 1320,-472 1320,-447 1237,-447"/>
<text text-anchor="start" x="1268" y="-456.8" font-family="Helvetica,sans-Serif" font-weight="bold" font-size="14.00">P7</text>
<polygon fill="lightgray" stroke="transparent" points="625,-422 625,-447 656,-447 656,-422 625,-422"/>
<polygon fill="none" stroke="black" points="625,-422 625,-447 656,-447 656,-422 625,-422"/>
<text text-anchor="start" x="630" y="-431.8" font-family="Helvetica,sans-Serif" font-weight="bold" font-size="14.00">P0</text>
<polygon fill="#e0e0e0" stroke="transparent" points="656,-422 656,-447 739,-447 739,-422 656,-422"/>
<polygon fill="none" stroke="black" points="656,-422 656,-447 739,-447 739,-422 656,-422"/>
<text text-anchor="start" x="694.5" y="-430.8" font-family="Helvetica,sans-Serif" font-size="14.00">&#45;</text>
<polygon fill="none" stroke="black" points="739,-422 739,-447 822,-447 822,-422 739,-422"/>
<text text-anchor="start" x="753" y="-430.8" font-family="Helvetica,sans-Serif" font-size="14.00">224351</text>
<polygon fill="none" stroke="black" points="822,-422 822,-447 905,-447 905,-422 822,-422"/>
<text text-anchor="start" x="836" y="-430.8" font-family="Helvetica,sans-Serif" font-size="14.00">223419</text>
<polygon fill="none" stroke="black" points="905,-422 905,-447 988,-447 988,-422 905,-422"/>
<text text-anchor="start" x="919" y="-430.8" font-family="Helvetica,sans-Serif" font-size="14.00">221258</text>
<polygon fill="none" stroke="black" points="988,-422 988,-447 1071,-447 1071,-422 988,-422"/>
<text text-anchor="start" x="993" y="-430.8" font-family="Helvetica,sans-Serif" font-size="14.00">10549978</text>
<polygon fill="none" stroke="black" points="1071,-422 1071,-447 1154,-447 1154,-422 1071,-422"/>
<text text-anchor="start" x="1076" y="-430.8" font-family="Helvetica,sans-Serif" font-size="14.00">10564179</text>
<polygon fill="none" stroke="black" points="1154,-422 1154,-447 1237,-447 1237,-422 1154,-422"/>
<text text-anchor="start" x="1159" y="-430.8" font-family="Helvetica,sans-Serif" font-size="14.00">10573816</text>
<polygon fill="none" stroke="black" points="1237,-422 1237,-447 1320,-447 1320,-422 1237,-422"/>
<text text-anchor="start" x="1242" y="-430.8" font-family="Helvetica,sans-Serif" font-size="14.00">10579451</text>
<polygon fill="lightgray" stroke="transparent" points="625,-397 625,-422 656,-422 656,-397 625,-397"/>
<polygon fill="none" stroke="black" points="625,-397 625,-422 656,-422 656,-397 625,-397"/>
<text text-anchor="start" x="630" y="-406.8" font-family="Helvetica,sans-Serif" font-weight="bold" font-size="14.00">P1</text>
<polygon fill="none" stroke="black" points="656,-397 656,-422 739,-422 739,-397 656,-397"/>
<text text-anchor="start" x="670" y="-405.8" font-family="Helvetica,sans-Serif" font-size="14.00">224351</text>
<polygon fill="#e0e0e0" stroke="transparent" points="739,-397 739,-422 822,-422 822,-397 739,-397"/>
<polygon fill="none" stroke="black" points="739,-397 739,-422 822,-422 822,-397 739,-397"/>
<text text-anchor="start" x="777.5" y="-405.8" font-family="Helvetica,sans-Serif" font-size="14.00">&#45;</text>
<polygon fill="none" stroke="black" points="822,-397 822,-422 905,-422 905,-397 822,-397"/>
<text text-anchor="start" x="836" y="-405.8" font-family="Helvetica,sans-Serif" font-size="14.00">223914</text>
<polygon fill="none" stroke="black" points="905,-397 905,-422 988,-422 988,-397 905,-397"/>
<text text-anchor="start" x="919" y="-405.8" font-family="Helvetica,sans-Serif" font-size="14.00">221223</text>
<polygon fill="none" stroke="black" points="988,-397 988,-422 1071,-422 1071,-397 988,-397"/>
<text text-anchor="start" x="993" y="-405.8" font-family="Helvetica,sans-Serif" font-size="14.00">10531558</text>
<polygon fill="none" stroke="black" points="1071,-397 1071,-422 1154,-422 1154,-397 1071,-397"/>
<text text-anchor="start" x="1076" y="-405.8" font-family="Helvetica,sans-Serif" font-size="14.00">10486307</text>
<polygon fill="none" stroke="black" points="1154,-397 1154,-422 1237,-422 1237,-397 1154,-397"/>
<text text-anchor="start" x="1159" y="-405.8" font-family="Helvetica,sans-Serif" font-size="14.00">10529161</text>
<polygon fill="none" stroke="black" points="1237,-397 1237,-422 1320,-422 1320,-397 1237,-397"/>
<text text-anchor="start" x="1242" y="-405.8" font-family="Helvetica,sans-Serif" font-size="14.00">10549787</text>
<polygon fill="lightgray" stroke="transparent" points="625,-372 625,-397 656,-397 656,-372 625,-372"/>
<polygon fill="none" stroke="black" points="625,-372 625,-397 656,-397 656,-372 625,-372"/>
<text text-anchor="start" x="630" y="-381.8" font-family="Helvetica,sans-Serif" font-weight="bold" font-size="14.00">P2</text>
<polygon fill="none" stroke="black" points="656,-372 656,-397 739,-397 739,-372 656,-372"/>
<text text-anchor="start" x="670" y="-380.8" font-family="Helvetica,sans-Serif" font-size="14.00">223419</text>
<polygon fill="none" stroke="black" points="739,-372 739,-397 822,-397 822,-372 739,-372"/>
<text text-anchor="start" x="753" y="-380.8" font-family="Helvetica,sans-Serif" font-size="14.00">223914</text>
<polygon fill="#e0e0e0" stroke="transparent" points="822,-372 822,-397 905,-397 905,-372 822,-372"/>
<polygon fill="none" stroke="black" points="822,-372 822,-397 905,-397 905,-372 822,-372"/>
<text text-anchor="start" x="860.5" y="-380.8" font-family="Helvetica,sans-Serif" font-size="14.00">&#45;</text>
<polygon fill="none" stroke="black" points="905,-372 905,-397 988,-397 988,-372 905,-372"/>
<text text-anchor="start" x="919" y="-380.8" font-family="Helvetica,sans-Serif" font-size="14.00">225120</text>
<polygon fill="none" stroke="black" points="988,-372 988,-397 1071,-397 1071,-372 988,-372"/>
<text text-anchor="start" x="993" y="-380.8" font-family="Helvetica,sans-Serif" font-size="14.00">10598319</text>
<polygon fill="none" stroke="black" points="1071,-372 1071,-397 1154,-397 1154,-372 1071,-372"/>
<text text-anchor="start" x="1076" y="-380.8" font-family="Helvetica,sans-Serif" font-size="14.00">10535863</text>
<polygon fill="none" stroke="black" points="1154,-372 1154,-397 1237,-397 1237,-372 1154,-372"/>
<text text-anchor="start" x="1159" y="-380.8" font-family="Helvetica,sans-Serif" font-size="14.00">10514938</text>
<polygon fill="none" stroke="black" points="1237,-372 1237,-397 1320,-397 1320,-372 1237,-372"/>
<text text-anchor="start" x="1242" y="-380.8" font-family="Helvetica,sans-Serif" font-size="14.00">10493393</text>
<polygon fill="lightgray" stroke="transparent" points="625,-347 625,-372 656,-372 656,-347 625,-347"/>
<polygon fill="none" stroke="black" points="625,-347 625,-372 656,-372 656,-347 625,-347"/>
<text text-anchor="start" x="630" y="-356.8" font-family="Helvetica,sans-Serif" font-weight="bold" font-size="14.00">P3</text>
<polygon fill="none" stroke="black" points="656,-347 656,-372 739,-372 739,-347 656,-347"/>
<text text-anchor="start" x="670" y="-355.8" font-family="Helvetica,sans-Serif" font-size="14.00">221258</text>
<polygon fill="none" stroke="black" points="739,-347 739,-372 822,-372 822,-347 739,-347"/>
<text text-anchor="start" x="753" y="-355.8" font-family="Helvetica,sans-Serif" font-size="14.00">221223</text>
<polygon fill="none" stroke="black" points="822,-347 822,-372 905,-372 905,-347 822,-347"/>
<text text-anchor="start" x="836" y="-355.8" font-family="Helvetica,sans-Serif" font-size="14.00">225120</text>
<polygon fill="#e0e0e0" stroke="transparent" points="905,-347 905,-372 988,-372 988,-347 905,-347"/>
<polygon fill="none" stroke="black" points="905,-347 905,-372 988,-372 988,-347 905,-347"/>
<text text-anchor="start" x="943.5" y="-355.8" font-family="Helvetica,sans-Serif" font-size="14.00">&#45;</text>
<polygon fill="none" stroke="black" points="988,-347 988,-372 1071,-372 1071,-347 988,-347"/>
<text text-anchor="start" x="993" y="-355.8" font-family="Helvetica,sans-Serif" font-size="14.00">10545532</text>
<polygon fill="none" stroke="black" points="1071,-347 1071,-372 1154,-372 1154,-347 1071,-347"/>
<text text-anchor="start" x="1076" y="-355.8" font-family="Helvetica,sans-Serif" font-size="14.00">10567023</text>
<polygon fill="none" stroke="black" points="1154,-347 1154,-372 1237,-372 1237,-347 1154,-347"/>
<text text-anchor="start" x="1159" y="-355.8" font-family="Helvetica,sans-Serif" font-size="14.00">10551642</text>
<polygon fill="none" stroke="black" points="1237,-347 1237,-372 1320,-372 1320,-347 1237,-347"/>
<text text-anchor="start" x="1242" y="-355.8" font-family="Helvetica,sans-Serif" font-size="14.00">10545706</text>
<polygon fill="lightgray" stroke="transparent" points="625,-322 625,-347 656,-347 656,-322 625,-322"/>
<polygon fill="none" stroke="black" points="625,-322 625,-347 656,-347 656,-322 625,-322"/>
<text text-anchor="start" x="630" y="-331.8" font-family="Helvetica,sans-Serif" font-weight="bold" font-size="14.00">P4</text>
<polygon fill="none" stroke="black" points="656,-322 656,-347 739,-347 739,-322 656,-322"/>
<text text-anchor="start" x="661" y="-330.8" font-family="Helvetica,sans-Serif" font-size="14.00">10549978</text>
<polygon fill="none" stroke="black" points="739,-322 739,-347 822,-347 822,-322 739,-322"/>
<text text-anchor="start" x="744" y="-330.8" font-family="Helvetica,sans-Serif" font-size="14.00">10531558</text>
<polygon fill="none" stroke="black" points="822,-322 822,-347 905,-347 905,-322 822,-322"/>
<text text-anchor="start" x="827" y="-330.8" font-family="Helvetica,sans-Serif" font-size="14.00">10598319</text>
<polygon fill="none" stroke="black" points="905,-322 905,-347 988,-347 988,-322 905,-322"/>
<text text-anchor="start" x="910" y="-330.8" font-family="Helvetica,sans-Serif" font-size="14.00">10545532</text>
<polygon fill="#e0e0e0" stroke="transparent" points="988,-322 988,-347 1071,-347 1071,-322 988,-322"/>
<polygon fill="none" stroke="black" points="988,-322 988,-347 1071,-347 1071,-322 988,-322"/>
<text text-anchor="start" x="1026.5" y="-330.8" font-family="Helvetica,sans-Serif" font-size="14.00">&#45;</text>
<polygon fill="none" stroke="black" points="1071,-322 1071,-347 1154,-347 1154,-322 1071,-322"/>
<text text-anchor="start" x="1085" y="-330.8" font-family="Helvetica,sans-Serif" font-size="14.00">223646</text>
<polygon fill="none" stroke="black" points="1154,-322 1154,-347 1237,-347 1237,-322 1154,-322"/>
<text text-anchor="start" x="1168" y="-330.8" font-family="Helvetica,sans-Serif" font-size="14.00">226415</text>
<polygon fill="none" stroke="black" points="1237,-322 1237,-347 1320,-347 1320,-322 1237,-322"/>
<text text-anchor="start" x="1251" y="-330.8" font-family="Helvetica,sans-Serif" font-size="14.00">229637</text>
<polygon fill="lightgray" stroke="transparent" points="625,-297 625,-322 656,-322 656,-297 625,-297"/>
<polygon fill="none" stroke="black" points="625,-297 625,-322 656,-322 656,-297 625,-297"/>
<text text-anchor="start" x="630" y="-306.8" font-family="Helvetica,sans-Serif" font-weight="bold" font-size="14.00">P5</text>
<polygon fill="none" stroke="black" points="656,-297 656,-322 739,-322 739,-297 656,-297"/>
<text text-anchor="start" x="661" y="-305.8" font-family="Helvetica,sans-Serif" font-size="14.00">10564179</text>
<polygon fill="none" stroke="black" points="739,-297 739,-322 822,-322 822,-297 739,-297"/>
<text text-anchor="start" x="744" y="-305.8" font-family="Helvetica,sans-Serif" font-size="14.00">10486307</text>
<polygon fill="none" stroke="black" points="822,-297 822,-322 905,-322 905,-297 822,-297"/>
<text text-anchor="start" x="827" y="-305.8" font-family="Helvetica,sans-Serif" font-size="14.00">10535863</text>
<polygon fill="none" stroke="black" points="905,-297 905,-322 988,-322 988,-297 905,-297"/>
<text text-anchor="start" x="910" y="-305.8" font-family="Helvetica,sans-Serif" font-size="14.00">10567023</text>
<polygon fill="none" stroke="black" points="988,-297 988,-322 1071,-322 1071,-297 988,-297"/>
<text text-anchor="start" x="1002" y="-305.8" font-family="Helvetica,sans-Serif" font-size="14.00">223646</text>
<polygon fill="#e0e0e0" stroke="transparent" points="1071,-297 1071,-322 1154,-322 1154,-297 1071,-297"/>
<polygon fill="none" stroke="black" points="1071,-297 1071,-322 1154,-322 1154,-297 1071,-297"/>
<text text-anchor="start" x="1109.5" y="-305.8" font-family="Helvetica,sans-Serif" font-size="14.00">&#45;</text>
<polygon fill="none" stroke="black" points="1154,-297 1154,-322 1237,-322 1237,-297 1154,-297"/>
<text text-anchor="start" x="1168" y="-305.8" font-family="Helvetica,sans-Serif" font-size="14.00">225266</text>
<polygon fill="none" stroke="black" points="1237,-297 1237,-322 1320,-322 1320,-297 1237,-297"/>
<text text-anchor="start" x="1251" y="-305.8" font-family="Helvetica,sans-Serif" font-size="14.00">225392</text>
<polygon fill="lightgray" stroke="transparent" points="625,-272 625,-297 656,-297 656,-272 625,-272"/>
<polygon fill="none" stroke="black" points="625,-272 625,-297 656,-297 656,-272 625,-272"/>
<text text-anchor="start" x="630" y="-281.8" font-family="Helvetica,sans-Serif" font-weight="bold" font-size="14.00">P6</text>
<polygon fill="none" stroke="black" points="656,-272 656,-297 739,-297 739,-272 656,-272"/>
<text text-anchor="start" x="661" y="-280.8" font-family="Helvetica,sans-Serif" font-size="14.00">10573816</text>
<polygon fill="none" stroke="black" points="739,-272 739,-297 822,-297 822,-272 739,-272"/>
<text text-anchor="start" x="744" y="-280.8" font-family="Helvetica,sans-Serif" font-size="14.00">10529161</text>
<polygon fill="none" stroke="black" points="822,-272 822,-297 905,-297 905,-272 822,-272"/>
<text text-anchor="start" x="827" y="-280.8" font-family="Helvetica,sans-Serif" font-size="14.00">10514938</text>
<polygon fill="none" stroke="black" points="905,-272 905,-297 988,-297 988,-272 905,-272"/>
<text text-anchor="start" x="910" y="-280.8" font-family="Helvetica,sans-Serif" font-size="14.00">10551642</text>
<polygon fill="none" stroke="black" points="988,-272 988,-297 1071,-297 1071,-272 988,-272"/>
<text text-anchor="start" x="1002" y="-280.8" font-family="Helvetica,sans-Serif" font-size="14.00">226415</text>
<polygon fill="none" stroke="black" points="1071,-272 1071,-297 1154,-297 1154,-272 1071,-272"/>
<text text-anchor="start" x="1085" y="-280.8" font-family="Helvetica,sans-Serif" font-size="14.00">225266</text>
<polygon fill="#e0e0e0" stroke="transparent" points="1154,-272 1154,-297 1237,-297 1237,-272 1154,-272"/>
<polygon fill="none" stroke="black" points="1154,-272 1154,-297 1237,-297 1237,-272 1154,-272"/>
<text text-anchor="start" x="1192.5" y="-280.8" font-family="Helvetica,sans-Serif" font-size="14.00">&#45;</text>
<polygon fill="none" stroke="black" points="1237,-272 1237,-297 1320,-297 1320,-272 1237,-272"/>
<text text-anchor="start" x="1251" y="-280.8" font-family="Helvetica,sans-Serif" font-size="14.00">223128</text>
<polygon fill="lightgray" stroke="transparent" points="625,-247 625,-272 656,-272 656,-247 625,-247"/>
<polygon fill="none" stroke="black" points="625,-247 625,-272 656,-272 656,-247 625,-247"/>
<text text-anchor="start" x="630" y="-256.8" font-family="Helvetica,sans-Serif" font-weight="bold" font-size="14.00">P7</text>
<polygon fill="none" stroke="black" points="656,-247 656,-272 739,-272 739,-247 656,-247"/>
<text text-anchor="start" x="661" y="-255.8" font-family="Helvetica,sans-Serif" font-size="14.00">10579451</text>
<polygon fill="none" stroke="black" points="739,-247 739,-272 822,-272 822,-247 739,-247"/>
<text text-anchor="start" x="744" y="-255.8" font-family="Helvetica,sans-Serif" font-size="14.00">10549787</text>
<polygon fill="none" stroke="black" points="822,-247 822,-272 905,-272 905,-247 822,-247"/>
<text text-anchor="start" x="827" y="-255.8" font-family="Helvetica,sans-Serif" font-size="14.00">10493393</text>
<polygon fill="none" stroke="black" points="905,-247 905,-272 988,-272 988,-247 905,-247"/>
<text text-anchor="start" x="910" y="-255.8" font-family="Helvetica,sans-Serif" font-size="14.00">10545706</text>
<polygon fill="none" stroke="black" points="988,-247 988,-272 1071,-272 1071,-247 988,-247"/>
<text text-anchor="start" x="1002" y="-255.8" font-family="Helvetica,sans-Serif" font-size="14.00">229637</text>
<polygon fill="none" stroke="black" points="1071,-247 1071,-272 1154,-272 1154,-247 1071,-247"/>
<text text-anchor="start" x="1085" y="-255.8" font-family="Helvetica,sans-Serif" font-size="14.00">225392</text>
<polygon fill="none" stroke="black" points="1154,-247 1154,-272 1237,-272 1237,-247 1154,-247"/>
<text text-anchor="start" x="1168" y="-255.8" font-family="Helvetica,sans-Serif" font-size="14.00">223128</text>
<polygon fill="#e0e0e0" stroke="transparent" points="1237,-247 1237,-272 1320,-272 1320,-247 1237,-247"/>
<polygon fill="none" stroke="black" points="1237,-247 1237,-272 1320,-272 1320,-247 1237,-247"/>
<text text-anchor="start" x="1275.5" y="-255.8" font-family="Helvetica,sans-Serif" font-size="14.00">&#45;</text>
<polygon fill="none" stroke="black" points="623.5,-246 623.5,-498 1320.5,-498 1320.5,-246 623.5,-246"/>
</g>
</g>
</svg>
